<svg version="1" xmlns="http://www.w3.org/2000/svg" width="682.667" height="682.667" viewBox="0 0 512.000000 512.000000"><path d="M64.8 97.9c-14.5 4.7-26.9 17.4-31.2 32-1.4 4.9-1.6 18.9-1.6 126.1 0 132.6-.3 125.3 6.1 136.6 3.3 5.9 11.5 13.9 17.9 17.6 10.6 6.2-2.3 5.8 200.1 5.8 178.5 0 184.9-.1 190.8-1.9 14.7-4.6 27.2-17.2 31.5-32 1.4-4.9 1.6-18.9 1.6-126.1 0-131.9.3-125.5-5.8-136-3.7-6.4-11.7-14.6-17.6-17.9-11.5-6.5 2.8-6.1-201-6-176.7 0-185.4.1-190.8 1.8zm48.4 137.3c.4 47.9.7 49.7 7.1 56.5 4.2 4.5 8.8 5.3 33 6l20.7.6V320h-23.2c-12.8-.1-26.3-.4-29.9-.9-13.3-1.7-24.5-9.9-30.2-21.9l-3.2-6.7-.3-49.3-.3-49.2h26l.3 43.2zM286 202.9v10.9l-26.7.4c-22.8.3-27.4.6-30.8 2.1-4.8 2.2-8.1 5.2-10.3 9.2-1.3 2.7-4.2 14.9-4.2 18.2 0 1 7.9 1.3 36 1.3h36v22h-72l.6 2.7c2.8 12.7 5.1 17.1 10.6 20.9 6.3 4.4 13 5.4 38.1 5.4H286v24.2l-28.7-.5c-31.5-.5-39.2-1.6-48.8-7.2-9.6-5.7-17.8-17.8-21.7-32.4-1.7-6.1-2.1-10.6-2.1-23.1 0-17.4 1.6-25.8 7.2-36.8 5.9-11.6 21.6-25.4 31-27.3 2-.4 17-.7 33.4-.8l29.7-.1v10.9zm100.5-8c20.2 5.4 29.9 14.8 35.5 34.1 3.4 11.7 3.9 36 1 50-3.8 19-12.2 32.1-24.1 37.6l-6.4 2.9-42.7.3-42.8.3V191.8l35.8.4c32.7.4 36.4.7 43.7 2.7z"/><path d="M334 255v41.2l19.8-.4c19.1-.3 19.9-.4 25.2-3 6.8-3.4 9.6-7.3 12.8-18.1 3.6-12.3 4-25.1 1.2-37.4-2.1-9.4-2.4-10-7.4-14.8-2.8-2.8-6.9-5.6-9.1-6.4-2.6-.9-10.8-1.5-23.2-1.8l-19.3-.5V255z"/></svg>